<svg width="20" height="26" viewBox="0 0 20 26" fill="none" xmlns="http://www.w3.org/2000/svg">
<path d="M18.9424 9.49752C18.8366 9.33253 18.6781 9.25002 18.4667 9.25002H12.2305L18.4139 1.61875C18.5196 1.495 18.5196 1.33002 18.4139 1.20627C18.3082 1.08252 18.1496 1 17.9382 1H9.48235C9.27097 1 9.11243 1.08252 9.00671 1.20627L1.07929 13.5813C0.97357 13.705 0.97357 13.87 1.07929 13.9937C1.18501 14.1175 1.39639 14.2 1.55493 14.2H6.99841L1.07929 25.2138C0.97357 25.3787 1.07929 25.585 1.29067 25.7088C1.3435 25.75 1.44922 25.75 1.55493 25.75C1.71348 25.75 1.87203 25.7088 1.97775 25.6262L18.8896 9.95123C18.9953 9.82748 19.0481 9.6625 18.9424 9.49752ZM3.40462 22.9863L8.26679 13.9113C8.31962 13.7875 8.31962 13.6638 8.21396 13.54C8.10824 13.4575 7.9497 13.375 7.79115 13.375H2.40051L9.79945 1.82502H16.987L10.7507 9.45623C10.645 9.57998 10.645 9.74497 10.7507 9.86872C10.8565 9.99247 11.015 10.075 11.2264 10.075H17.3569L3.40462 22.9863Z" fill="#343434" stroke="#343434" stroke-width="0.5"/>
</svg>
