<svg width="24" height="24" viewBox="0 0 24 24" fill="none" xmlns="http://www.w3.org/2000/svg">
<path d="M24 11.9936L13.0586 0V7.18433H11.7876C8.63914 7.18433 5.67895 8.41003 3.45254 10.6357C1.22613 12.8613 0 15.8205 0 18.9681V24L2.09984 21.7C4.90873 18.6237 8.89594 16.8441 13.0586 16.8036V23.9874L24 11.9936ZM1.40692 20.3844V18.9681C1.40692 16.1962 2.48669 13.5901 4.44733 11.6301C6.40796 9.67017 9.01481 8.59076 11.7876 8.59076H14.4654V3.62933L22.0961 11.9936L14.4654 20.358V15.3966H13.2031C8.76241 15.3966 4.49202 17.2084 1.40692 20.3844Z" fill="#343434"/>
</svg>
