<svg width="24" height="24" viewBox="0 0 24 24" fill="none" xmlns="http://www.w3.org/2000/svg">
<path d="M23.9996 11.5144C23.928 8.37465 22.6396 5.4488 20.3721 3.27588C18.1078 1.10625 15.1343 -0.0559207 11.9999 0.00212389C8.86447 -0.0566531 5.892 1.10625 3.62786 3.27588C1.36024 5.4488 0.0719676 8.37465 0.000183112 11.5142L0 11.5241V11.534C0.0164811 14.7336 1.38661 17.7757 3.76539 19.9078V22.8087C3.76539 23.3718 4.15855 23.8621 4.70005 23.9749C4.78026 23.9916 4.86102 24 4.94141 24C5.15933 24 5.37358 23.939 5.5622 23.8213L7.89391 22.3647C9.20892 22.8252 10.5811 23.0585 11.9761 23.0585H11.9937C12.071 23.0599 12.1473 23.0607 12.2244 23.0607C15.2765 23.0605 18.162 21.9023 20.3721 19.7847C22.6396 17.6118 23.928 14.6859 23.9996 11.5464L24 11.5303L23.9996 11.5144ZM19.3981 18.7685C17.4013 20.6819 14.7788 21.7057 12.0138 21.6511L12.0061 21.6509H11.9984C10.701 21.6539 9.42409 21.4281 8.20504 20.9811C7.90362 20.8707 7.57528 20.9044 7.30407 21.0738L5.17306 22.4048V19.7364C5.17306 19.4386 5.04359 19.1554 4.8178 18.9593C2.66775 17.0903 1.42525 14.3851 1.40785 11.5365C1.47341 8.77565 2.60731 6.20338 4.6019 4.29211C6.59849 2.37884 9.22174 1.35546 11.986 1.40966L11.9999 1.40984L12.0138 1.40966C14.7783 1.35601 17.4013 2.37884 19.3981 4.29211C21.3909 6.20173 22.5248 8.77199 22.592 11.5303C22.5248 14.2888 21.3909 16.8589 19.3981 18.7685V18.7685Z" fill="#343434"/>
</svg>
